<?xml version="1.0" ?><svg xmlns="http://www.w3.org/2000/svg" xmlns:xlink="http://www.w3.org/1999/xlink" version="1.1" id="design" viewBox="0 0 100 100" style="enable-background:new 0 0 100 100;" xml:space="preserve"><style type="text/css">
	.st0{fill:#333333;}
	.st1{fill:#48EDE5;}
</style><g><g><path class="st0" d="M80.6,69.7H61.9c-0.6,0-1.2,0.5-1.2,1.2v1.1H39.3v-1.1c0-0.6-0.5-1.2-1.2-1.2H19.4c-0.6,0-1.2,0.5-1.2,1.2v4    c0,0.4,0.2,0.7,0.5,0.9l2.8,2.2c0.2,0.2,0.4,0.2,0.7,0.2h55.6c0.3,0,0.5-0.1,0.7-0.2l2.8-2.2c0.3-0.2,0.5-0.6,0.5-0.9v-4    C81.8,70.2,81.3,69.7,80.6,69.7z M79.5,74.3l-2.1,1.6H22.6l-2.1-1.6V72H37v1.1c0,0.6,0.5,1.2,1.2,1.2h23.7c0.6,0,1.2-0.5,1.2-1.2    V72h16.4V74.3z"/><path class="st0" d="M23.3,67.1h53.5c0.6,0,1.2-0.5,1.2-1.2V29.1c0-4-3.3-7.3-7.3-7.3H29.4c-1.9,0-3.8,0.7-5.1,2.1    c-1.4,1.4-2.1,3.2-2.1,5.1v36.9C22.1,66.6,22.6,67.1,23.3,67.1z M24.4,29.1c0-1.3,0.5-2.6,1.5-3.5c0.9-0.9,2.2-1.4,3.5-1.4    c0,0,0,0,0,0h41.3c2.7,0,5,2.2,5,5v35.7H24.4V29.1z"/></g><path class="st1" d="M70.6,28H29.4c-0.6,0-1.2,0.5-1.2,1.2v31.8h43.5V29.1C71.7,28.5,71.2,28,70.6,28z M33.3,33h33.4v19.3l-6.3-5.2   l-6.2,4.6l-9.5-9.2L33.3,53.8L33.3,33z"/><circle class="st1" cx="55.3" cy="40.8" r="3"/></g></svg>